HIERARCHY
ROOT pelvis
{
	OFFSET 0.003123 -0.351407 0.012037
	CHANNELS 6 Xposition Yposition Zposition Zrotation Yrotation Xrotation 
	JOINT left_hip
	{
		OFFSET 0.058189 -0.092763 -0.026001
		CHANNELS 3 Zrotation Yrotation Xrotation
		JOINT left_knee
		{
			OFFSET 0.054695 -0.378753 -0.009396
			CHANNELS 3 Zrotation Yrotation Xrotation
			JOINT left_ankle
			{
				OFFSET -0.043453 -0.403059 -0.031876
				CHANNELS 3 Zrotation Yrotation Xrotation
				JOINT left_foot
				{
					OFFSET 0.047257 -0.057997 0.118216
					CHANNELS 3 Zrotation Yrotation Xrotation
					End Site
					{
						OFFSET 0.000000 0.000000 0.000000
					}
				}
			}
		}
	}
	JOINT right_hip
	{
		OFFSET -0.063267 -0.103908 -0.021250
		CHANNELS 3 Zrotation Yrotation Xrotation
		JOINT right_knee
		{
			OFFSET -0.044210 -0.362380 -0.016824
			CHANNELS 3 Zrotation Yrotation Xrotation
			JOINT right_ankle
			{
				OFFSET 0.015417 -0.410728 -0.020192
				CHANNELS 3 Zrotation Yrotation Xrotation
				JOINT right_foot
				{
					OFFSET -0.038812 -0.058328 0.119049
					CHANNELS 3 Zrotation Yrotation Xrotation
					End Site
					{
						OFFSET 0.000000 0.000000 0.000000
					}
				}
			}
		}
	}
	JOINT spine_1
	{
		OFFSET -0.002763 0.109891 -0.027618
		CHANNELS 3 Zrotation Yrotation Xrotation
		JOINT spine_2
		{
			OFFSET 0.009448 0.131853 -0.005940
			CHANNELS 3 Zrotation Yrotation Xrotation
			JOINT spine_3
			{
				OFFSET -0.011330 0.052235 0.028447
				CHANNELS 3 Zrotation Yrotation Xrotation
				JOINT neck
				{
					OFFSET -0.012164 0.165167 -0.031615
					CHANNELS 3 Zrotation Yrotation Xrotation
					JOINT head
					{
						OFFSET 0.024783 0.160452 0.020737
						CHANNELS 3 Zrotation Yrotation Xrotation
						End Site
						{
							OFFSET 0.000000 0.000000 0.000000
						}
					}
				}
				JOINT left_collar
				{
					OFFSET 0.046364 0.084944 -0.007220
					CHANNELS 3 Zrotation Yrotation Xrotation
					JOINT left_shoulder
					{
						OFFSET 0.119239 0.057728 -0.015461
						CHANNELS 3 Zrotation Yrotation Xrotation
						JOINT left_elbow
						{
							OFFSET 0.254123 -0.072151 -0.042459
							CHANNELS 3 Zrotation Yrotation Xrotation
							JOINT left_wrist
							{
								OFFSET 0.251987 0.023221 -0.002472
								CHANNELS 3 Zrotation Yrotation Xrotation
								JOINT left_index_1
								{
									OFFSET 0.101902 -0.008688 0.019351
									CHANNELS 3 Zrotation Yrotation Xrotation
									JOINT left_index_2
									{
										OFFSET 0.030149 -0.011154 0.001151
										CHANNELS 3 Zrotation Yrotation Xrotation
										JOINT left_index_3
										{
											OFFSET 0.006504 -0.021577 -0.002433
											CHANNELS 3 Zrotation Yrotation Xrotation
											End Site
											{
												OFFSET 0.000000 0.000000 0.000000
											}
										}
									}
								}
								JOINT left_middle_1
								{
									OFFSET 0.109398 -0.006328 -0.003981
									CHANNELS 3 Zrotation Yrotation Xrotation
									JOINT left_middle_2
									{
										OFFSET 0.026472 -0.015218 -0.004641
										CHANNELS 3 Zrotation Yrotation Xrotation
										JOINT left_middle_3
										{
											OFFSET 0.005022 -0.023347 -0.001911
											CHANNELS 3 Zrotation Yrotation Xrotation
											End Site
											{
												OFFSET 0.000000 0.000000 0.000000
											}
										}
									}
								}
								JOINT left_pinky_1
								{
									OFFSET 0.084047 -0.014539 -0.043750
									CHANNELS 3 Zrotation Yrotation Xrotation
									JOINT left_pinky_2
									{
										OFFSET 0.012124 -0.014448 -0.005375
										CHANNELS 3 Zrotation Yrotation Xrotation
										JOINT left_pinky_3
										{
											OFFSET 0.003798 -0.018853 0.000167
											CHANNELS 3 Zrotation Yrotation Xrotation
											End Site
											{
												OFFSET 0.000000 0.000000 0.000000
											}
										}
									}
								}
								JOINT left_ring_1
								{
									OFFSET 0.097444 -0.009268 -0.027345
									CHANNELS 3 Zrotation Yrotation Xrotation
									JOINT left_ring_2
									{
										OFFSET 0.023561 -0.016057 -0.001895
										CHANNELS 3 Zrotation Yrotation Xrotation
										JOINT left_ring_3
										{
											OFFSET 0.004257 -0.023548 0.000814
											CHANNELS 3 Zrotation Yrotation Xrotation
											End Site
											{
												OFFSET 0.000000 0.000000 0.000000
											}
										}
									}
								}
								JOINT left_thumb_1
								{
									OFFSET 0.040636 -0.017977 0.025611
									CHANNELS 3 Zrotation Yrotation Xrotation
									JOINT left_thumb_2
									{
										OFFSET 0.021637 -0.017639 0.011623
										CHANNELS 3 Zrotation Yrotation Xrotation
										JOINT left_thumb_3
										{
											OFFSET 0.024002 -0.008356 0.006548
											CHANNELS 3 Zrotation Yrotation Xrotation
											End Site
											{
												OFFSET 0.000000 0.000000 0.000000
											}
										}
									}
								}
							}
						}
					}
				}
				JOINT right_collar
				{
					OFFSET -0.047695 0.084339 -0.013400
					CHANNELS 3 Zrotation Yrotation Xrotation
					JOINT right_shoulder
					{
						OFFSET -0.102578 0.053524 -0.012669
						CHANNELS 3 Zrotation Yrotation Xrotation
						JOINT right_elbow
						{
							OFFSET -0.271150 -0.036492 -0.026467
							CHANNELS 3 Zrotation Yrotation Xrotation
							JOINT right_wrist
							{
								OFFSET -0.249267 -0.004533 -0.015325
								CHANNELS 3 Zrotation Yrotation Xrotation
								JOINT right_index_1
								{
									OFFSET -0.099881 -0.011783 0.019600
									CHANNELS 3 Zrotation Yrotation Xrotation
									JOINT right_index_2
									{
										OFFSET -0.030148 -0.011154 0.001151
										CHANNELS 3 Zrotation Yrotation Xrotation
										JOINT right_index_3
										{
											OFFSET -0.006505 -0.021577 -0.002432
											CHANNELS 3 Zrotation Yrotation Xrotation
											End Site
											{
												OFFSET 0.000000 0.000000 0.000000
											}
										}
									}
								}
								JOINT right_middle_1
								{
									OFFSET -0.107376 -0.009422 -0.003734
									CHANNELS 3 Zrotation Yrotation Xrotation
									JOINT right_middle_2
									{
										OFFSET -0.026472 -0.015218 -0.004641
										CHANNELS 3 Zrotation Yrotation Xrotation
										JOINT right_middle_3
										{
											OFFSET -0.005022 -0.023347 -0.001911
											CHANNELS 3 Zrotation Yrotation Xrotation
											End Site
											{
												OFFSET 0.000000 0.000000 0.000000
											}
										}
									}
								}
								JOINT right_pinky_1
								{
									OFFSET -0.082027 -0.017634 -0.043503
									CHANNELS 3 Zrotation Yrotation Xrotation
									JOINT right_pinky_2
									{
										OFFSET -0.012123 -0.014448 -0.005374
										CHANNELS 3 Zrotation Yrotation Xrotation
										JOINT right_pinky_3
										{
											OFFSET -0.003798 -0.018852 0.000167
											CHANNELS 3 Zrotation Yrotation Xrotation
											End Site
											{
												OFFSET 0.000000 0.000000 0.000000
											}
										}
									}
								}
								JOINT right_ring_1
								{
									OFFSET -0.095423 -0.012362 -0.027099
									CHANNELS 3 Zrotation Yrotation Xrotation
									JOINT right_ring_2
									{
										OFFSET -0.023561 -0.016057 -0.001895
										CHANNELS 3 Zrotation Yrotation Xrotation
										JOINT right_ring_3
										{
											OFFSET -0.004257 -0.023548 0.000816
											CHANNELS 3 Zrotation Yrotation Xrotation
											End Site
											{
												OFFSET 0.000000 0.000000 0.000000
											}
										}
									}
								}
								JOINT right_thumb_1
								{
									OFFSET -0.038613 -0.021074 0.025861
									CHANNELS 3 Zrotation Yrotation Xrotation
									JOINT right_thumb_2
									{
										OFFSET -0.021636 -0.017639 0.011623
										CHANNELS 3 Zrotation Yrotation Xrotation
										JOINT right_thumb_3
										{
											OFFSET -0.024004 -0.008353 0.006547
											CHANNELS 3 Zrotation Yrotation Xrotation
											End Site
											{
												OFFSET 0.000000 0.000000 0.000000
											}
										}
									}
								}
							}
						}
					}
				}
			}
		}
	}
}
MOTION
Frames: 4
Frame Time: 0.050000
0.000557 0.960442 0.007187 -2.597069 0.860896 8.777219 4.946441 -1.216180 -10.311208 -4.594596 0.283341 0.961491 0.742728 5.866664 6.172746 0.000000 0.000000 0.000000 2.407946 1.186833 -9.201393 3.016642 -0.132543 0.890531 2.316048 1.721143 4.313547 0.000000 0.000000 0.000000 3.152832 0.114449 -0.372894 -8.214894 -4.466795 -32.141485 9.628409 0.204941 39.619719 2.224441 4.136481 -28.949249 0.000000 0.000000 0.000000 14.937692 6.512096 -0.971469 -98.937350 -15.608226 -7.218322 8.090266 -15.074890 0.816495 -6.966256 1.752868 2.956679 6.375079 1.487477 0.502822 -21.334196 2.245552 -0.476750 0.000000 0.000000 0.000000 3.442624 9.440911 6.924864 -14.896295 -4.450751 -14.292880 0.000000 0.000000 0.000000 -15.839313 15.236971 8.537138 18.124784 -2.234675 -25.467340 0.000000 0.000000 0.000000 -2.937674 4.735608 3.129022 -8.776053 -2.975234 -8.437304 0.000000 0.000000 0.000000 -8.640967 -10.345821 -2.895880 15.797961 10.306776 0.720047 0.000000 0.000000 0.000000 -15.610186 -4.059874 -0.680514 88.482873 13.106265 0.363560 10.642244 19.068448 0.939629 4.734123 -2.798131 -0.595805 -13.547036 -1.492426 0.664612 51.870744 -1.844510 -3.007053 0.000000 0.000000 0.000000 -1.825345 -10.939262 7.656155 32.642017 9.329814 -16.967598 0.000000 0.000000 0.000000 37.442524 -23.635319 6.386973 -39.494301 -1.966245 -42.423427 0.000000 0.000000 0.000000 13.922679 -13.610810 7.573805 4.291579 13.142894 -33.739202 0.000000 0.000000 0.000000 16.739360 23.107157 -3.566479 -40.575152 -26.528761 12.320858 0.000000 0.000000 0.000000 
0.000792 0.960442 0.008507 -2.614101 0.828494 8.782257 5.061411 -1.190513 -10.116090 -4.668408 0.302779 0.769460 0.562938 5.572664 6.209710 0.000000 0.000000 0.000000 2.450325 1.217655 -9.407010 3.009058 -0.127665 1.245293 2.205855 1.458619 4.389702 0.000000 0.000000 0.000000 3.130246 0.113948 -0.373694 -8.236649 -4.464834 -32.150001 9.665958 0.213973 39.627178 2.266193 4.140975 -28.960119 0.000000 0.000000 0.000000 14.883541 6.076361 -0.828172 -98.542865 -15.767313 -7.124296 8.202469 -15.342754 0.817198 -6.697636 2.805657 3.172310 5.884575 -0.582455 -0.476019 -22.132664 2.847870 0.381804 0.000000 0.000000 0.000000 1.096768 5.283318 3.600536 -12.201273 -3.318813 -11.532856 0.000000 0.000000 0.000000 -14.859417 9.959782 4.051476 16.273044 -1.946781 -18.878413 0.000000 0.000000 0.000000 -2.915800 5.635384 3.754544 -8.930632 -3.532904 -10.198349 0.000000 0.000000 0.000000 -9.303013 -11.430928 -3.269704 17.738752 10.919374 0.642176 0.000000 0.000000 0.000000 -15.791779 -4.108580 -0.680943 88.389511 13.096368 0.349302 11.290314 18.725695 0.974448 4.623528 -2.362410 -0.320708 -12.270727 -1.406439 0.562219 50.209899 -1.912748 -2.933863 0.000000 0.000000 0.000000 -2.224205 -10.754434 7.620951 32.551612 9.085081 -16.958761 0.000000 0.000000 0.000000 36.891191 -23.389189 6.247395 -39.022899 -2.026605 -42.435960 0.000000 0.000000 0.000000 13.741306 -13.306146 7.324998 4.086382 12.540715 -33.290042 0.000000 0.000000 0.000000 15.484168 21.265130 -3.651732 -37.207813 -23.934185 9.630121 0.000000 0.000000 0.000000 
0.000027 0.960442 0.008507 -2.546056 0.287497 8.564421 4.822213 -1.182174 -10.036434 -4.328807 0.276458 0.843384 0.752601 6.204184 6.744392 0.000000 0.000000 0.000000 2.400565 1.254095 -9.652795 2.858840 -0.106662 1.924674 2.495695 1.985652 4.377954 0.000000 0.000000 0.000000 3.069458 0.080064 -0.023135 -8.186155 -4.660511 -32.832910 9.733666 0.484226 40.387467 2.278291 4.204965 -29.409356 0.000000 0.000000 0.000000 15.001338 6.815331 -1.102976 -98.970367 -16.517191 -6.530571 9.167196 -13.673088 0.668218 -7.087734 2.663951 3.563926 6.544017 -0.314232 -0.378007 -23.946278 2.396197 -0.910678 0.000000 0.000000 0.000000 2.662532 7.609531 5.531724 -14.374365 -4.643321 -14.795969 0.000000 0.000000 0.000000 -15.294573 13.452133 6.968053 16.595240 -2.189566 -24.030872 0.000000 0.000000 0.000000 -3.304261 8.250007 5.502190 -6.436465 -6.132789 -20.261291 0.000000 0.000000 0.000000 -9.444511 -10.512747 -2.675120 18.121583 9.681998 -0.209415 0.000000 0.000000 0.000000 -15.720757 -4.527804 -0.844848 88.453094 13.661037 0.695424 11.311949 18.844560 0.997237 4.855492 -2.252995 0.218193 -13.404092 -2.635185 1.198396 51.749052 -1.520929 -3.754967 0.000000 0.000000 0.000000 -1.585696 -16.386069 11.082826 28.350566 15.948629 -30.660481 0.000000 0.000000 0.000000 41.850496 -20.788999 1.776171 -46.160037 -2.915104 -31.080410 0.000000 0.000000 0.000000 11.618499 -10.559947 5.943306 11.179625 12.872502 -28.272578 0.000000 0.000000 0.000000 14.185449 22.021052 -5.168998 -36.573613 -26.218025 11.345908 0.000000 0.000000 0.000000 
0.001676 0.960442 0.011147 -2.669886 -0.242682 8.359175 4.767648 -1.128471 -9.596081 -3.978101 0.285919 0.391092 0.600553 6.423394 7.596079 0.000000 0.000000 0.000000 2.469580 1.239002 -9.520051 2.900797 -0.108833 1.694366 2.615533 1.446011 5.455477 0.000000 0.000000 0.000000 3.110333 0.092527 -0.105379 -8.383868 -4.409978 -31.967540 9.821899 0.698501 39.505363 2.230733 4.178634 -29.073686 0.000000 0.000000 0.000000 14.895645 6.836223 -1.137132 -98.995846 -16.101695 -6.670947 9.491486 -13.487753 0.621201 -6.952487 2.336229 3.347838 6.279647 -0.343249 -0.381981 -21.885019 2.639124 -0.074779 0.000000 0.000000 0.000000 2.094252 7.620122 5.354323 -15.743665 -4.440293 -14.236717 0.000000 0.000000 0.000000 -15.739667 13.886106 7.113292 17.242516 -2.077029 -24.291057 0.000000 0.000000 0.000000 -3.977128 8.451384 5.496545 -3.903996 -5.494310 -20.024501 0.000000 0.000000 0.000000 -9.149936 -11.822693 -3.707878 17.237491 13.446012 2.060129 0.000000 0.000000 0.000000 -15.762225 -4.777571 -0.878064 88.676656 13.471700 0.427806 11.229421 18.864279 0.993559 5.010930 -3.173504 0.624697 -14.771687 1.222668 -0.844462 51.348620 -4.297378 -0.714895 0.000000 0.000000 0.000000 -2.445295 -13.693928 9.768551 32.768219 15.842339 -27.996184 0.000000 0.000000 0.000000 37.036486 -18.208222 1.975633 -41.562291 -1.411478 -28.317493 0.000000 0.000000 0.000000 11.918152 -7.418712 3.823504 11.498233 7.479359 -14.944485 0.000000 0.000000 0.000000 15.040455 24.180123 -5.935490 -38.601464 -27.955033 12.774654 0.000000 0.000000 0.000000 
